# xmcd
#
# Track frame offsets:
#	150
#	20550
#	38335
#	59397
#	85772
#	102997
#	121172
#	143135
#	162259
#	181672
#	198622
#	220972
#
# Disc length: 3162 seconds
#
# Revision: 0
# Processed by: cddbd v1.5.1PL0 Copyright (c) Steve Scherf et al.
# Submitted via: dBpowerAMP V4.0
#
DISCID=9c0c580c
DTITLE=Tom Gisler - Red and Orange
DYEAR=1999
DGENRE=Blues
TTITLE0=Not far
TTITLE1=Steal away
TTITLE2=Church
TTITLE3=Red and Orange
TTITLE4=Drawback
TTITLE5=Mob goes wild
TTITLE6=Monday morning
TTITLE7=Thaughts
TTITLE8=On the Spot
TTITLE9=Maybe
TTITLE10=Mystery
TTITLE11=Never ending search
EXTD=
EXTT0=
EXTT1=
EXTT2=
EXTT3=
EXTT4=
EXTT5=
EXTT6=
EXTT7=
EXTT8=
EXTT9=
EXTT10=
EXTT11=
PLAYORDER=
